<svg xmlns="http://www.w3.org/2000/svg" width="1440" height="760" viewBox="0 0 1440 760" role="img" aria-labelledby="title desc">
  <title id="title">ArIED 61850 engineering workspace</title>
  <desc id="desc">A stylized multi-IED explorer, live monitor, event log and diagnostics dashboard.</desc>
  <defs>
    <linearGradient id="bg" x1="0" y1="0" x2="1" y2="1">
      <stop offset="0" stop-color="#07111f"/>
      <stop offset="0.48" stop-color="#0b1f3c"/>
      <stop offset="1" stop-color="#102a4d"/>
    </linearGradient>
    <linearGradient id="accent" x1="0" y1="0" x2="1" y2="1">
      <stop offset="0" stop-color="#38bdf8"/>
      <stop offset="0.5" stop-color="#3b82f6"/>
      <stop offset="1" stop-color="#8b5cf6"/>
    </linearGradient>
    <linearGradient id="panel" x1="0" y1="0" x2="0" y2="1">
      <stop offset="0" stop-color="#ffffff" stop-opacity="0.98"/>
      <stop offset="1" stop-color="#eef5ff" stop-opacity="0.98"/>
    </linearGradient>
    <filter id="shadow" x="-20%" y="-20%" width="140%" height="160%">
      <feDropShadow dx="0" dy="26" stdDeviation="34" flood-color="#020617" flood-opacity="0.48"/>
    </filter>
    <filter id="glow" x="-100%" y="-100%" width="300%" height="300%">
      <feGaussianBlur stdDeviation="24"/>
    </filter>
    <clipPath id="windowClip"><rect x="112" y="92" width="1216" height="592" rx="28"/></clipPath>
  </defs>

  <rect width="1440" height="760" fill="url(#bg)"/>
  <circle cx="185" cy="112" r="190" fill="#0ea5e9" opacity="0.18" filter="url(#glow)"/>
  <circle cx="1260" cy="638" r="230" fill="#8b5cf6" opacity="0.16" filter="url(#glow)"/>
  <path d="M0 604 C290 510 420 735 720 622 C1010 514 1170 550 1440 458 L1440 760 L0 760 Z" fill="#38bdf8" opacity="0.055"/>

  <g filter="url(#shadow)">
    <rect x="112" y="92" width="1216" height="592" rx="28" fill="url(#panel)"/>
    <g clip-path="url(#windowClip)">
      <rect x="112" y="92" width="1216" height="62" fill="#ffffff"/>
      <rect x="112" y="153" width="1216" height="1" fill="#dbe7f5"/>
      <circle cx="146" cy="123" r="7" fill="#ef4444"/>
      <circle cx="169" cy="123" r="7" fill="#f59e0b"/>
      <circle cx="192" cy="123" r="7" fill="#22c55e"/>

      <g transform="translate(224 107)">
        <rect width="32" height="32" rx="10" fill="url(#accent)"/>
        <path d="M8 23 L16 7 L24 23 M11 18 H21" fill="none" stroke="#fff" stroke-width="2.4" stroke-linecap="round" stroke-linejoin="round"/>
      </g>
      <text x="270" y="128" font-family="Inter,Segoe UI,Arial,sans-serif" font-size="18" font-weight="700" fill="#0f172a">ArIED 61850</text>
      <text x="399" y="128" font-family="Inter,Segoe UI,Arial,sans-serif" font-size="12" fill="#64748b">Smart IED Explorer &amp; Monitor</text>

      <g transform="translate(912 108)">
        <rect width="112" height="30" rx="15" fill="#e8f1ff"/>
        <circle cx="17" cy="15" r="4" fill="#22c55e"/>
        <text x="29" y="20" font-family="Inter,Segoe UI,Arial,sans-serif" font-size="11" font-weight="650" fill="#1e40af">3 connected</text>
      </g>
      <g transform="translate(1034 108)">
        <rect width="122" height="30" rx="15" fill="#ecfdf5"/>
        <circle cx="17" cy="15" r="4" fill="#10b981"/>
        <text x="29" y="20" font-family="Inter,Segoe UI,Arial,sans-serif" font-size="11" font-weight="650" fill="#047857">128 live points</text>
      </g>
      <g transform="translate(1166 108)">
        <rect width="132" height="30" rx="15" fill="#fff7ed"/>
        <circle cx="17" cy="15" r="4" fill="#f59e0b"/>
        <text x="29" y="20" font-family="Inter,Segoe UI,Arial,sans-serif" font-size="11" font-weight="650" fill="#9a3412">4 new events</text>
      </g>

      <rect x="112" y="154" width="1216" height="54" fill="#f6f9fd"/>
      <g transform="translate(136 164)">
        <rect width="664" height="34" rx="17" fill="#e7eef8"/>
        <rect x="4" y="4" width="160" height="26" rx="13" fill="url(#accent)"/>
        <text x="35" y="22" font-family="Inter,Segoe UI,Arial,sans-serif" font-size="11" font-weight="700" fill="#fff">IEC 61850 Explorer</text>
        <text x="207" y="22" font-family="Inter,Segoe UI,Arial,sans-serif" font-size="11" font-weight="650" fill="#52647a">Live Monitor</text>
        <text x="358" y="22" font-family="Inter,Segoe UI,Arial,sans-serif" font-size="11" font-weight="650" fill="#52647a">Event Log</text>
        <text x="492" y="22" font-family="Inter,Segoe UI,Arial,sans-serif" font-size="11" font-weight="650" fill="#52647a">Diagnostics</text>
      </g>
      <g transform="translate(1048 164)">
        <rect width="118" height="34" rx="12" fill="#fff" stroke="#dbe7f5"/>
        <text x="20" y="22" font-family="Inter,Segoe UI,Arial,sans-serif" font-size="11" font-weight="650" fill="#334155">Open SCL</text>
      </g>
      <g transform="translate(1178 164)">
        <rect width="120" height="34" rx="12" fill="url(#accent)"/>
        <text x="29" y="22" font-family="Inter,Segoe UI,Arial,sans-serif" font-size="11" font-weight="700" fill="#fff">Add IED</text>
      </g>

      <rect x="112" y="208" width="1216" height="476" fill="#eef4fb"/>

      <g transform="translate(132 228)">
        <rect width="244" height="430" rx="18" fill="#fff" stroke="#dce7f5"/>
        <text x="18" y="30" font-family="Inter,Segoe UI,Arial,sans-serif" font-size="12" font-weight="700" fill="#0f172a">IED Explorer</text>

        <g transform="translate(14 46)">
          <rect width="216" height="82" rx="14" fill="#f3f7ff" stroke="#93b4f8"/>
          <rect x="12" y="12" width="48" height="58" rx="12" fill="#e8f1ff"/>
          <path d="M25 24 H47 V57 H25 Z M29 29 H43 M29 36 H43 M29 47 H34 M38 47 H43 M29 53 H34 M38 53 H43" fill="none" stroke="#2563eb" stroke-width="2" stroke-linecap="round"/>
          <text x="72" y="29" font-family="Inter,Segoe UI,Arial,sans-serif" font-size="12" font-weight="700" fill="#0f172a">Bay Controller 01</text>
          <text x="72" y="47" font-family="Inter,Segoe UI,Arial,sans-serif" font-size="10" fill="#64748b">192.0.2.10 · Connected</text>
          <rect x="72" y="57" width="62" height="16" rx="8" fill="#dcfce7"/>
          <text x="84" y="68" font-family="Inter,Segoe UI,Arial,sans-serif" font-size="8.5" font-weight="700" fill="#15803d">MONITORING</text>
        </g>
        <g transform="translate(14 138)">
          <rect width="216" height="82" rx="14" fill="#fff" stroke="#dce7f5"/>
          <rect x="12" y="12" width="48" height="58" rx="12" fill="#f1f5f9"/>
          <path d="M25 24 H47 V57 H25 Z M29 29 H43 M29 36 H43 M29 47 H34 M38 47 H43 M29 53 H34 M38 53 H43" fill="none" stroke="#64748b" stroke-width="2" stroke-linecap="round"/>
          <text x="72" y="29" font-family="Inter,Segoe UI,Arial,sans-serif" font-size="12" font-weight="700" fill="#0f172a">Protection IED 02</text>
          <text x="72" y="47" font-family="Inter,Segoe UI,Arial,sans-serif" font-size="10" fill="#64748b">192.0.2.11 · Connected</text>
          <rect x="72" y="57" width="58" height="16" rx="8" fill="#e0f2fe"/>
          <text x="84" y="68" font-family="Inter,Segoe UI,Arial,sans-serif" font-size="8.5" font-weight="700" fill="#0369a1">READY</text>
        </g>
        <g transform="translate(14 230)">
          <rect width="216" height="82" rx="14" fill="#fff" stroke="#dce7f5"/>
          <rect x="12" y="12" width="48" height="58" rx="12" fill="#f1f5f9"/>
          <path d="M25 24 H47 V57 H25 Z M29 29 H43 M29 36 H43 M29 47 H34 M38 47 H43 M29 53 H34 M38 53 H43" fill="none" stroke="#94a3b8" stroke-width="2" stroke-linecap="round"/>
          <text x="72" y="29" font-family="Inter,Segoe UI,Arial,sans-serif" font-size="12" font-weight="700" fill="#0f172a">Metering IED 03</text>
          <text x="72" y="47" font-family="Inter,Segoe UI,Arial,sans-serif" font-size="10" fill="#64748b">192.0.2.12 · Cached model</text>
          <rect x="72" y="57" width="70" height="16" rx="8" fill="#f1f5f9"/>
          <text x="84" y="68" font-family="Inter,Segoe UI,Arial,sans-serif" font-size="8.5" font-weight="700" fill="#475569">OFFLINE</text>
        </g>
        <g transform="translate(14 330)">
          <rect width="216" height="38" rx="11" fill="#edf5ff" stroke="#c8dcff"/>
          <text x="60" y="24" font-family="Inter,Segoe UI,Arial,sans-serif" font-size="10.5" font-weight="700" fill="#2563eb">Connect all configured IEDs</text>
        </g>
        <g transform="translate(14 378)">
          <rect width="102" height="38" rx="11" fill="#fff" stroke="#dce7f5"/>
          <text x="28" y="24" font-family="Inter,Segoe UI,Arial,sans-serif" font-size="10.5" font-weight="650" fill="#334155">Open SCL</text>
          <rect x="114" width="102" height="38" rx="11" fill="url(#accent)"/>
          <text x="145" y="24" font-family="Inter,Segoe UI,Arial,sans-serif" font-size="10.5" font-weight="700" fill="#fff">Add IED</text>
        </g>
      </g>

      <g transform="translate(394 228)">
        <rect width="914" height="430" rx="18" fill="#fff" stroke="#dce7f5"/>
        <g transform="translate(18 18)">
          <text x="0" y="18" font-family="Inter,Segoe UI,Arial,sans-serif" font-size="14" font-weight="750" fill="#0f172a">Live model &amp; monitoring workspace</text>
          <text x="0" y="39" font-family="Inter,Segoe UI,Arial,sans-serif" font-size="10.5" fill="#64748b">LD0 / CSWI1 · report-first acquisition · IED timestamps</text>
          <g transform="translate(644 1)">
            <rect width="104" height="32" rx="12" fill="#eef6ff"/>
            <text x="21" y="20" font-family="Inter,Segoe UI,Arial,sans-serif" font-size="10" font-weight="700" fill="#1d4ed8">128 signals</text>
            <rect x="114" width="118" height="32" rx="12" fill="#ecfdf5"/>
            <text x="134" y="20" font-family="Inter,Segoe UI,Arial,sans-serif" font-size="10" font-weight="700" fill="#047857">RCB active</text>
          </g>
        </g>

        <g transform="translate(18 76)">
          <rect width="550" height="334" rx="14" fill="#fbfdff" stroke="#e2eaf4"/>
          <rect width="550" height="38" rx="14" fill="#f0f5fb"/>
          <text x="16" y="24" font-family="Inter,Segoe UI,Arial,sans-serif" font-size="9.5" font-weight="700" fill="#64748b">REFERENCE</text>
          <text x="276" y="24" font-family="Inter,Segoe UI,Arial,sans-serif" font-size="9.5" font-weight="700" fill="#64748b">VALUE</text>
          <text x="375" y="24" font-family="Inter,Segoe UI,Arial,sans-serif" font-size="9.5" font-weight="700" fill="#64748b">QUALITY</text>
          <text x="456" y="24" font-family="Inter,Segoe UI,Arial,sans-serif" font-size="9.5" font-weight="700" fill="#64748b">SOURCE</text>
          <g font-family="Inter,Segoe UI,Arial,sans-serif" font-size="10.5">
            <g transform="translate(0 38)"><rect width="550" height="42" fill="#fff"/><text x="16" y="26" fill="#0f172a">LD0/CSWI1.Pos.stVal</text><text x="276" y="26" font-weight="750" fill="#2563eb">Closed</text><text x="375" y="26" fill="#15803d">Good</text><text x="456" y="26" fill="#334155">Report</text></g>
            <g transform="translate(0 80)"><rect width="550" height="42" fill="#f8fbff"/><text x="16" y="26" fill="#0f172a">LD0/XCBR1.Pos.stVal</text><text x="276" y="26" font-weight="750" fill="#0f172a">Closed</text><text x="375" y="26" fill="#15803d">Good</text><text x="456" y="26" fill="#334155">Report</text></g>
            <g transform="translate(0 122)"><rect width="550" height="42" fill="#fff"/><text x="16" y="26" fill="#0f172a">LD0/MMXU1.A.phsA.cVal.mag.f</text><text x="276" y="26" font-weight="750" fill="#0f172a">512.4 A</text><text x="375" y="26" fill="#15803d">Good</text><text x="456" y="26" fill="#334155">Report</text></g>
            <g transform="translate(0 164)"><rect width="550" height="42" fill="#f8fbff"/><text x="16" y="26" fill="#0f172a">LD0/MMXU1.PhV.phsA.cVal.mag.f</text><text x="276" y="26" font-weight="750" fill="#0f172a">20.02 kV</text><text x="375" y="26" fill="#15803d">Good</text><text x="456" y="26" fill="#334155">Report</text></g>
            <g transform="translate(0 206)"><rect width="550" height="42" fill="#fff"/><text x="16" y="26" fill="#0f172a">LD0/GGIO1.Ind1.stVal</text><text x="276" y="26" font-weight="750" fill="#f59e0b">True</text><text x="375" y="26" fill="#15803d">Good</text><text x="456" y="26" fill="#334155">Dynamic</text></g>
            <g transform="translate(0 248)"><rect width="550" height="42" fill="#f8fbff"/><text x="16" y="26" fill="#0f172a">LD0/LLN0.Mod.stVal</text><text x="276" y="26" font-weight="750" fill="#0f172a">On</text><text x="375" y="26" fill="#15803d">Good</text><text x="456" y="26" fill="#334155">Poll</text></g>
          </g>
        </g>

        <g transform="translate(586 76)">
          <rect width="310" height="152" rx="14" fill="#0f2544"/>
          <text x="16" y="26" font-family="Inter,Segoe UI,Arial,sans-serif" font-size="11" font-weight="700" fill="#e2e8f0">Recent process activity</text>
          <path d="M18 112 C54 96 62 102 92 72 S145 54 172 76 S223 90 250 52 S282 42 292 58" fill="none" stroke="#38bdf8" stroke-width="3" stroke-linecap="round"/>
          <path d="M18 124 H292" stroke="#35506e" stroke-width="1"/>
          <circle cx="250" cy="52" r="5" fill="#a78bfa"/>
          <text x="16" y="142" font-family="Inter,Segoe UI,Arial,sans-serif" font-size="9" fill="#94a3b8">Report updates · semantic changes · quality</text>
        </g>
        <g transform="translate(586 242)">
          <rect width="310" height="168" rx="14" fill="#fbfdff" stroke="#e2eaf4"/>
          <text x="16" y="27" font-family="Inter,Segoe UI,Arial,sans-serif" font-size="11" font-weight="700" fill="#0f172a">Command evidence</text>
          <rect x="16" y="43" width="278" height="32" rx="10" fill="#eef6ff"/>
          <text x="28" y="63" font-family="Inter,Segoe UI,Arial,sans-serif" font-size="9.5" font-weight="700" fill="#1d4ed8">ctlModel · SBO enhanced security</text>
          <rect x="16" y="84" width="128" height="38" rx="11" fill="#fff" stroke="#cfdceb"/>
          <text x="54" y="108" font-family="Inter,Segoe UI,Arial,sans-serif" font-size="10.5" font-weight="700" fill="#0f172a">OPEN</text>
          <rect x="152" y="84" width="142" height="38" rx="11" fill="url(#accent)"/>
          <text x="185" y="108" font-family="Inter,Segoe UI,Arial,sans-serif" font-size="10.5" font-weight="700" fill="#fff">CLOSE</text>
          <circle cx="24" cy="143" r="4" fill="#22c55e"/>
          <text x="36" y="147" font-family="Inter,Segoe UI,Arial,sans-serif" font-size="9.5" fill="#475569">Descriptor ready · feedback mapped</text>
        </g>
      </g>
    </g>
  </g>

  <text x="720" y="729" text-anchor="middle" font-family="Inter,Segoe UI,Arial,sans-serif" font-size="13" fill="#b7c8df">SCL-assisted engineering · independent IED sessions · report-first monitoring · guarded control</text>
</svg>
