<svg xmlns="http://www.w3.org/2000/svg" width="1200" height="630" viewBox="0 0 1200 630" role="img" aria-labelledby="t d">
  <title id="t">ARSAS IEC 61850 Engineering Workstation</title><desc id="d">Smart Reporting, multi-IED monitoring, GOOSE, file transfer, SCL and Smart Control in one engineering workspace.</desc>
  <defs>
    <linearGradient id="bg" x1="0" y1="0" x2="1" y2="1"><stop stop-color="#07111f"/><stop offset=".58" stop-color="#0b2140"/><stop offset="1" stop-color="#172554"/></linearGradient>
    <linearGradient id="g" x1="0" y1="0" x2="1" y2="1"><stop stop-color="#38bdf8"/><stop offset=".55" stop-color="#3b82f6"/><stop offset="1" stop-color="#8b5cf6"/></linearGradient>
    <filter id="blur"><feGaussianBlur stdDeviation="55"/></filter><filter id="shadow"><feDropShadow dx="0" dy="24" stdDeviation="28" flood-color="#000" flood-opacity=".45"/></filter>
  </defs>
  <rect width="1200" height="630" fill="url(#bg)"/><circle cx="170" cy="90" r="190" fill="#38bdf8" opacity=".15" filter="url(#blur)"/><circle cx="1040" cy="540" r="220" fill="#8b5cf6" opacity=".15" filter="url(#blur)"/>
  <g transform="translate(74 65)"><rect width="72" height="72" rx="22" fill="url(#g)"/><path d="M18 54 36 16l18 38M24 43h24" fill="none" stroke="#fff" stroke-width="6" stroke-linecap="round" stroke-linejoin="round"/></g>
  <text x="170" y="108" font-family="Inter,Segoe UI,Arial,sans-serif" font-size="32" font-weight="700" fill="#fff">ARSAS</text>
  <text x="74" y="238" font-family="Inter,Segoe UI,Arial,sans-serif" font-size="66" font-weight="720" letter-spacing="-2" fill="#fff">IEC 61850 engineering</text>
  <text x="74" y="312" font-family="Inter,Segoe UI,Arial,sans-serif" font-size="66" font-weight="720" letter-spacing="-2" fill="#8bdcff">without the setup maze.</text>
  <text x="78" y="380" font-family="Inter,Segoe UI,Arial,sans-serif" font-size="23" fill="#b7c8df">Connect an IED · discover the live model · select signals · reach trustworthy values</text>
  <g font-family="Inter,Segoe UI,Arial,sans-serif" font-size="17" font-weight="650" fill="#dbeafe"><text x="78" y="448">SMART REPORTING  ·  MULTI-IED  ·  GOOSE  ·  FILES + COMTRADE</text><text x="78" y="486">SCL  ·  SMART CONTROL  ·  DIAGNOSTIC EVIDENCE</text></g>
  <g transform="translate(805 106)" filter="url(#shadow)"><rect width="320" height="350" rx="26" fill="#f7fbff"/><rect x="24" y="24" width="272" height="114" rx="16" fill="#0f2544"/><path d="M45 108c34-26 49 4 79-34s55-9 80-24 48 9 70-17" fill="none" stroke="#38bdf8" stroke-width="4" stroke-linecap="round"/><g fill="#e6eef9"><rect x="24" y="164" width="272" height="46" rx="13"/><rect x="24" y="222" width="272" height="46" rx="13"/><rect x="24" y="280" width="272" height="46" rx="13"/></g><g fill="#7aa5ca"><rect x="42" y="181" width="150" height="12" rx="6"/><rect x="42" y="239" width="150" height="12" rx="6"/><rect x="42" y="297" width="150" height="12" rx="6"/><circle cx="270" cy="187" r="7"/><circle cx="270" cy="245" r="7"/><circle cx="270" cy="303" r="7"/></g></g>
  <text x="76" y="574" font-family="Inter,Segoe UI,Arial,sans-serif" font-size="19" font-weight="600" fill="#dbeafe">masarray.github.io/arsas</text>
</svg>